
        <svg xmlns="http://www.w3.org/2000/svg" xmlns:xlink="http://www.w3.org/1999/xlink" version="1.1" width="3171.4285714285716" 
        height="2622.857142857143" viewBox="0 0 3171.4285714285716 2622.857142857143">
			
			<g transform="scale(8.571428571428571) translate(10, 10)">
				<defs id="SvgjsDefs1031"><linearGradient id="SvgjsLinearGradient1040"><stop id="SvgjsStop1041" stop-color="#905e26" offset="0"></stop><stop id="SvgjsStop1042" stop-color="#f5ec9b" offset="0.5"></stop><stop id="SvgjsStop1043" stop-color="#905e26" offset="1"></stop></linearGradient><linearGradient id="SvgjsLinearGradient1044"><stop id="SvgjsStop1045" stop-color="#905e26" offset="0"></stop><stop id="SvgjsStop1046" stop-color="#f5ec9b" offset="0.5"></stop><stop id="SvgjsStop1047" stop-color="#905e26" offset="1"></stop></linearGradient><linearGradient id="SvgjsLinearGradient1048"><stop id="SvgjsStop1049" stop-color="#905e26" offset="0"></stop><stop id="SvgjsStop1050" stop-color="#f5ec9b" offset="0.5"></stop><stop id="SvgjsStop1051" stop-color="#905e26" offset="1"></stop></linearGradient><linearGradient id="SvgjsLinearGradient1052"><stop id="SvgjsStop1053" stop-color="#905e26" offset="0"></stop><stop id="SvgjsStop1054" stop-color="#f5ec9b" offset="0.5"></stop><stop id="SvgjsStop1055" stop-color="#905e26" offset="1"></stop></linearGradient></defs><g id="SvgjsG1032" featureKey="rootContainer" transform="matrix(1,0,0,1,0,0)" fill="url(#SvgjsLinearGradient1040)"><rect y="0" height="1" width="1" opacity="0"></rect><rect y="281" width="350" height="5"></rect></g><g id="SvgjsG1033" featureKey="symbolFeature-0" transform="matrix(1.8229844839602265,0,0,1.8229844839602265,84.15893055958708,8.88549135116748)" fill="url(#SvgjsLinearGradient1044)"><g xmlns="http://www.w3.org/2000/svg"><polygon fill="none" points="86.577,7.027 80.378,68.24 14.344,74.537 80.378,68.24  "></polygon><polygon fill="none" points="68.623,79.95 75.78,79.563 68.623,79.95  "></polygon><polygon fill="none" points="17.152,70.724 77.273,64.039 82.966,9.353 25.709,26.652  "></polygon><path fill="none" d="M86.582,6.992c0-0.004,0.001-0.007,0.001-0.012c0.001-0.004,0.001-0.011,0.002-0.016   c-0.004,0.04-0.008,0.063-0.008,0.063s0.001-0.005,0.002-0.013C86.58,7.01,86.581,7.002,86.582,6.992z"></path><path fill="none" d="M86.602,6.701c0.001-0.028,0.002-0.05,0.002-0.08C86.603,6.649,86.602,6.675,86.602,6.701z"></path><path fill="none" d="M86.486,5.8c0.008,0.024,0.018,0.046,0.025,0.07C86.504,5.846,86.495,5.824,86.486,5.8z"></path><path fill="none" d="M86.585,6.964c0.001-0.009,0.002-0.018,0.003-0.029c0-0.003,0-0.006,0.001-0.009   c0-0.004,0.001-0.013,0.001-0.018C86.588,6.926,86.586,6.951,86.585,6.964z"></path><path d="M86.316,5.452c0.011,0.014,0.014,0.034,0.024,0.049c-0.085-0.129-0.188-0.245-0.335-0.317   c-0.569-0.33-1.362-0.116-1.362-0.116L25.58,23.736c-0.632,0.281-1.34,1.008-1.615,2.372l-9.62,48.429l66.034-6.297l6.199-61.212   c0,0,0.003-0.023,0.008-0.063c-0.001,0.005-0.001,0.012-0.002,0.016c-0.001,0.005-0.001,0.008-0.001,0.012   c-0.001,0.009-0.002,0.017-0.003,0.022c-0.001,0.008-0.002,0.013-0.002,0.013L80.378,68.24l-66.034,6.297l-1.159,5.834   c0.002-0.01-0.502,2.635,0.661,2.547l39.98-2.165l0,0l-39.978,2.165c0.073,0.085,0.348,0.224,1.381,0.171l38.623-2.144l1.079,8.118   c0,0,0.234,1.372-0.478,2.816c-0.399,0.81-1.009,1.243-1.544,1.481c-0.104,0.046-0.204,0.085-0.3,0.117   c-0.04,0.013-0.081,0.03-0.119,0.041c-0.102,0.031-0.195,0.053-0.279,0.071c-0.023,0.005-0.05,0.012-0.071,0.016   c-0.089,0.017-0.162,0.027-0.217,0.033c-0.006,0.001-0.018,0.003-0.023,0.003c-0.055,0.006-0.09,0.007-0.09,0.007l-20.953,0.873   c-0.023,0-0.038,0.018-0.059,0.024h-0.043c-0.016,0.008-0.025,0.023-0.039,0.034c-0.014,0.011-0.025,0.018-0.036,0.032   c-0.035,0.041-0.062,0.09-0.062,0.149c0,0.132,0.107,0.239,0.239,0.239l37.308-0.122c0,0,0.45-0.014,0.998-0.254   c0.007-0.003,0.013-0.004,0.02-0.008c0.122-0.054,0.247-0.127,0.375-0.207c0.021-0.013,0.041-0.022,0.062-0.036   c0.116-0.077,0.229-0.174,0.344-0.277c0.033-0.03,0.066-0.052,0.098-0.084c0.103-0.101,0.198-0.225,0.293-0.351   c0.039-0.052,0.08-0.096,0.117-0.152c0.084-0.127,0.155-0.277,0.228-0.428c0.031-0.064,0.069-0.113,0.097-0.182l-0.011,0   c0.026-0.063,0.06-0.11,0.084-0.177c0.71-1.996,0.147-4.138,0.147-4.138l-2.347-8.464l8.089-0.449c0,0,1.15,0.086,2.155-0.71   c1.004-0.796,1.175-2.681,1.175-2.681l6.77-68.422C86.859,7.86,87.193,5.942,86.316,5.452z M77.273,64.039l-60.121,6.684   l8.557-44.072L82.966,9.353L77.273,64.039z M68.623,79.95L68.623,79.95l7.156-0.388L68.623,79.95z M86.511,5.871   c-0.007-0.024-0.017-0.047-0.025-0.07C86.495,5.824,86.504,5.846,86.511,5.871z M86.588,6.935   c-0.001,0.011-0.002,0.019-0.003,0.029c0.001-0.013,0.003-0.038,0.005-0.055c0,0.005-0.001,0.013-0.001,0.018   C86.588,6.929,86.588,6.932,86.588,6.935z M86.602,6.701c0.001-0.026,0.002-0.052,0.002-0.08   C86.603,6.651,86.603,6.673,86.602,6.701z"></path></g></g><g id="SvgjsG1034" featureKey="nameFeature-0" transform="matrix(1.3899919561099567,0,0,1.3899919561099567,-1.8903899086933034,187.04368623411295)" fill="url(#SvgjsLinearGradient1048)"><path d="M8.96 35.12 l15.08 0 l0 4.88 l-22.68 0 l0 -3.68 l14.72 -19.44 l-14.44 0 l0 -4.88 l22 0 l0 3.72 z M34.17 40.56 c-5.6 0 -10 -4.56 -10 -10.68 c0 -6.16 4.4 -10.68 10 -10.68 c2.84 0 5.08 1.16 6.52 3 l0 -2.44 l5.32 0 l0 20.24 l-5.32 0 l0 -2.48 c-1.44 1.84 -3.68 3.04 -6.52 3.04 z M35.089999999999996 35.84 c3.2 0 5.76 -2.48 5.76 -6 c0 -3.48 -2.56 -5.92 -5.76 -5.92 c-3.32 0 -5.68 2.44 -5.68 5.92 c0 3.52 2.36 6 5.68 6 z M58.18 40.56 c-6.2 0 -10.76 -4.64 -10.76 -10.72 c0 -6.04 4.56 -10.64 10.72 -10.64 c5.6 0 9.08 3.6 9.88 6.64 l-4.92 1.4 c-0.44 -1.68 -2.32 -3.36 -4.96 -3.36 c-3.36 0 -5.52 2.76 -5.52 5.96 c0 3.16 2.16 6 5.52 6 c2.64 0 4.52 -1.56 4.96 -3.24 l4.92 1.36 c-0.8 3.08 -4.28 6.6 -9.84 6.6 z M81.11000000000001 19.2 c5.28 0 7.96 3.56 7.96 8.96 l0 11.84 l-5.28 0 l0 -10.84 c0 -3.08 -1.4 -5.04 -4.32 -5.04 c-2.96 0 -4.88 2.32 -4.88 5.88 l0 10 l-5.28 0 l0 -29.2 l5.28 0 l0 11.52 c1.4 -1.8 3.6 -3.12 6.52 -3.12 z M101.12000000000002 40.56 c-6.24 0 -10.84 -4.64 -10.84 -10.68 c0 -6.08 4.6 -10.68 10.84 -10.68 s10.8 4.6 10.8 10.68 c0 6.04 -4.56 10.68 -10.8 10.68 z M101.12000000000002 35.76 c3.36 0 5.68 -2.52 5.68 -5.88 s-2.32 -5.88 -5.68 -5.88 c-3.4 0 -5.68 2.52 -5.68 5.88 s2.28 5.88 5.68 5.88 z M142.94 12 l0 4.96 l-9.4 0 l0 23.04 l-5.48 0 l0 -23.04 l-9.4 0 l0 -4.96 l24.28 0 z M149.23000000000002 40.56 c-6.48 0 -11 -4.28 -11 -10.68 c0 -6.04 4.24 -10.68 10.6 -10.68 c6.64 0 10.44 4.6 10.44 10.4 c0 0.64 0 1.24 -0.12 1.88 l-15.72 0 c0.36 2.6 2.2 4.6 5.88 4.6 c2.56 0 4.12 -1.16 4.92 -2.68 l4.76 1.4 c-1.16 2.64 -4.44 5.76 -9.76 5.76 z M143.43 28.16 l10.68 0 c-0.24 -2.48 -2.16 -4.48 -5.32 -4.48 c-3.08 0 -5.08 2.16 -5.36 4.48 z M170.24 40.56 c-6.2 0 -10.76 -4.64 -10.76 -10.72 c0 -6.04 4.56 -10.64 10.72 -10.64 c5.6 0 9.08 3.6 9.88 6.64 l-4.92 1.4 c-0.44 -1.68 -2.32 -3.36 -4.96 -3.36 c-3.36 0 -5.52 2.76 -5.52 5.96 c0 3.16 2.16 6 5.52 6 c2.64 0 4.52 -1.56 4.96 -3.24 l4.92 1.36 c-0.8 3.08 -4.28 6.6 -9.84 6.6 z M193.17000000000002 19.2 c5.28 0 7.96 3.56 7.96 8.96 l0 11.84 l-5.28 0 l0 -10.84 c0 -3.08 -1.4 -5.04 -4.32 -5.04 c-2.96 0 -4.88 2.32 -4.88 5.88 l0 10 l-5.28 0 l0 -29.2 l5.28 0 l0 11.52 c1.4 -1.8 3.6 -3.12 6.52 -3.12 z M215.38000000000002 19.2 c5.28 0 7.96 3.56 7.96 8.96 l0 11.84 l-5.28 0 l0 -10.84 c0 -3.08 -1.4 -5.04 -4.32 -5.04 c-2.96 0 -4.88 2.32 -4.88 5.88 l0 10 l-5.28 0 l0 -20.24 l5.28 0 l0 2.56 c1.4 -1.8 3.6 -3.12 6.52 -3.12 z M228.47000000000003 16.92 c-1.76 0 -3.16 -1.36 -3.16 -3.12 c0 -1.68 1.4 -3.04 3.16 -3.04 s3.16 1.36 3.16 3.04 c0 1.76 -1.4 3.12 -3.16 3.12 z M225.75000000000003 40 l0 -20.24 l5.32 0 l0 20.24 l-5.32 0 z M243.32000000000002 40.56 c-6.2 0 -10.76 -4.64 -10.76 -10.72 c0 -6.04 4.56 -10.64 10.72 -10.64 c5.6 0 9.08 3.6 9.88 6.64 l-4.92 1.4 c-0.44 -1.68 -2.32 -3.36 -4.96 -3.36 c-3.36 0 -5.52 2.76 -5.52 5.96 c0 3.16 2.16 6 5.52 6 c2.64 0 4.52 -1.56 4.96 -3.24 l4.92 1.36 c-0.8 3.08 -4.28 6.6 -9.84 6.6 z"></path></g><g id="SvgjsG1035" featureKey="sloganFeature-0" transform="matrix(1.0705406807768953,0,0,1.0705406807768953,104.36578475781033,246.9193296274313)" fill="url(#SvgjsLinearGradient1052)"><path d="M22.3 6 c0.26 0 0.32 0.64 0.06 0.68 c-0.8 0.12 -1.42 0.42 -2.08 2.12 l-3.02 7.84 c-0.64 1.66 -0.96 2.58 -0.96 3.36 c0 0.12 -1.4 0.44 -1.46 0.3 l-3.14 -8 l-1.88 4.34 c-0.72 1.66 -0.96 2.56 -0.96 3.36 c0 0.12 -1.42 0.44 -1.48 0.3 l-4.56 -11.48 c-0.68 -1.72 -1.28 -2.02 -2.06 -2.14 c-0.26 -0.04 -0.2 -0.68 0.06 -0.68 l5.2 0 c0.26 0 0.3 0.64 0.06 0.68 c-0.92 0.16 -1.4 0.58 -0.8 2.12 l3.16 8.16 l2.04 -4.72 c0.46 -1.06 0.52 -1.7 -0.02 -3.08 c-0.74 -1.9 -1.26 -2.34 -1.78 -2.48 c-0.22 -0.06 -0.2 -0.68 0.06 -0.68 l3.98 0 c0.2 0 0.26 0.06 0.26 0.16 c0 0.26 -0.88 0.88 -0.2 2.64 l3.08 8 l3.04 -8 c0.66 -1.72 0 -1.94 -0.96 -2.12 c-0.22 -0.04 -0.18 -0.68 0.06 -0.68 l4.3 0 z M27.2325 20.04 c-0.2 0.02 -0.28 -0.68 -0.12 -0.72 c1.16 -0.3 2.06 -0.48 2.06 -1.96 l0 -8.88 c0 -1.28 -0.82 -1.62 -1.68 -1.84 c-0.16 -0.04 -0.06 -0.7 0.1 -0.68 c1.46 0.16 3.98 0.12 5.2 0.12 c1.82 0 3.14 -0.08 4.78 -0.12 c0.48 0 0.48 0.32 0.38 0.78 l-0.48 1.9 c-0.06 0.28 -0.56 0.28 -0.64 0 c-0.3 -0.98 -0.9 -1.54 -3.4 -1.54 c-1.4 0 -1.86 0.36 -1.86 1.4 l0 3.26 c0 0.52 0.26 0.62 0.66 0.62 l0.44 0 c1.62 0 3.02 -0.16 3.84 -0.9 c0.2 -0.18 0.64 -0.14 0.46 0.26 l-1.14 2.52 c-0.16 0.36 -0.46 0.32 -0.68 0.02 c-0.46 -0.64 -1.48 -0.9 -2.64 -0.9 l-0.28 0 c-0.4 0 -0.66 0.1 -0.66 0.62 l0 3.36 c0 1.14 0.48 1.56 2.14 1.56 c3.02 0 4.22 -1.38 4.7 -2.14 c0.14 -0.22 0.68 -0.12 0.68 0.22 c0 1.02 -0.86 3.04 -2.12 3.04 c-1.12 -0.06 -2.22 -0.12 -3.9 -0.12 c-1.84 0 -4.02 -0.06 -5.84 0.12 z M52.64500000000001 12.379999999999999 c1.86 0 3.66 1.34 3.66 3.58 c0 2.48 -2.26 4.08 -5.6 4.08 c-0.96 0 -2.08 -0.12 -3.56 -0.12 c-1.26 0 -2.22 0.02 -3.14 0.12 c-0.18 0.02 -0.28 -0.68 -0.12 -0.72 c1.16 -0.3 2.06 -0.48 2.06 -1.96 l0 -8.88 c0 -1.28 -0.82 -1.62 -1.68 -1.84 c-0.16 -0.04 -0.06 -0.7 0.1 -0.68 c0.82 0.1 1.78 0.12 2.42 0.12 c1.6 0 2.78 -0.12 3.66 -0.12 c2.58 0 4.7 1.08 4.72 3.28 c0.02 1.62 -1.12 2.74 -2.52 3.02 l0 0.12 z M49.76500000000001 7 c-1.06 0 -1.42 0.36 -1.42 1.48 l0 3.56 l2.06 0 c1.44 0 2.28 -0.72 2.28 -2.26 c0 -1.9 -1.28 -2.78 -2.92 -2.78 z M50.64500000000001 19 c1.76 0 3.08 -0.52 3.08 -2.6 c0 -2.2 -1.46 -3.36 -3.32 -3.36 l-2.06 0 l0 4.32 c0 1.1 0.56 1.64 2.3 1.64 z M65.93750000000001 20.32 c-1.64 0 -4.14 -0.72 -3.9 -1.6 l0.2 -0.74 c0.56 -2.1 1.22 0.98 4.52 0.98 c1.68 0 2.5 -0.82 2.5 -1.98 c0 -0.94 -0.6 -1.34 -2.02 -2.22 l-1.94 -1.22 c-2.16 -1.36 -3.04 -2.2 -3.04 -3.7 c0 -2.46 2.4 -4.16 4.88 -4.16 c1.52 0 3.46 0.66 3.24 1.34 l-0.24 0.76 c-0.62 1.94 -1.12 -0.74 -3.86 -0.74 c-1.42 0 -2.16 0.72 -2.16 1.78 c0 0.9 0.54 1.4 1.88 2.22 l2.1 1.3 c2.12 1.32 2.98 2.22 2.98 3.66 c0 2.5 -2.46 4.32 -5.14 4.32 z M76.49000000000001 20 c-0.16 0 -0.28 -0.66 -0.12 -0.68 c1.02 -0.14 1.66 -0.54 1.66 -1.8 l0 -9.04 c0 -1.26 -0.64 -1.66 -1.66 -1.8 c-0.16 -0.02 -0.04 -0.68 0.12 -0.68 l5.48 0 c0.16 0 0.28 0.66 0.12 0.68 c-0.86 0.12 -1.66 0.4 -1.66 1.8 l0 9.04 c0 1.4 0.8 1.68 1.66 1.8 c0.16 0.02 0.04 0.68 -0.12 0.68 l-5.48 0 z M90.16250000000001 20 c-0.18 0 -0.3 -0.64 -0.14 -0.66 c1.38 -0.18 2.3 -0.46 2.3 -1.54 l0 -9.86 c0 -0.5 -0.18 -0.66 -0.66 -0.66 l-0.54 0 c-1.9 0 -2.96 0.44 -3.36 1.3 c-0.18 0.4 -0.86 0.34 -0.78 0 c0.18 -0.72 0.34 -1.34 0.46 -2.4 c0.04 -0.38 0.26 -0.36 0.62 -0.32 c0.92 0.1 1.76 0.14 5.56 0.14 s5.14 -0.04 6.1 -0.14 c0.36 -0.04 0.7 -0.06 0.58 0.32 c-0.3 0.94 -0.5 1.68 -0.62 2.4 c-0.06 0.34 -0.6 0.36 -0.68 0 c-0.2 -0.84 -1.08 -1.3 -2.8 -1.3 l-0.62 0 c-0.48 0 -0.78 0.16 -0.78 0.66 l0 9.86 c0 1.08 0.92 1.36 2.3 1.54 c0.16 0.02 0.04 0.66 -0.14 0.66 l-6.8 0 z M105.03500000000001 20.04 c-0.2 0.02 -0.28 -0.68 -0.12 -0.72 c1.16 -0.3 2.06 -0.48 2.06 -1.96 l0 -8.88 c0 -1.28 -0.82 -1.62 -1.68 -1.84 c-0.16 -0.04 -0.06 -0.7 0.1 -0.68 c1.46 0.16 3.98 0.12 5.2 0.12 c1.82 0 3.14 -0.08 4.78 -0.12 c0.48 0 0.48 0.32 0.38 0.78 l-0.48 1.9 c-0.06 0.28 -0.56 0.28 -0.64 0 c-0.3 -0.98 -0.9 -1.54 -3.4 -1.54 c-1.4 0 -1.86 0.36 -1.86 1.4 l0 3.26 c0 0.52 0.26 0.62 0.66 0.62 l0.44 0 c1.62 0 3.02 -0.16 3.84 -0.9 c0.2 -0.18 0.64 -0.14 0.46 0.26 l-1.14 2.52 c-0.16 0.36 -0.46 0.32 -0.68 0.02 c-0.46 -0.64 -1.48 -0.9 -2.64 -0.9 l-0.28 0 c-0.4 0 -0.66 0.1 -0.66 0.62 l0 3.36 c0 1.14 0.48 1.56 2.14 1.56 c3.02 0 4.22 -1.38 4.7 -2.14 c0.14 -0.22 0.68 -0.12 0.68 0.22 c0 1.02 -0.86 3.04 -2.12 3.04 c-1.12 -0.06 -2.22 -0.12 -3.9 -0.12 c-1.84 0 -4.02 -0.06 -5.84 0.12 z M126.22750000000002 20.32 c-1.64 0 -4.14 -0.72 -3.9 -1.6 l0.2 -0.74 c0.56 -2.1 1.22 0.98 4.52 0.98 c1.68 0 2.5 -0.82 2.5 -1.98 c0 -0.94 -0.6 -1.34 -2.02 -2.22 l-1.94 -1.22 c-2.16 -1.36 -3.04 -2.2 -3.04 -3.7 c0 -2.46 2.4 -4.16 4.88 -4.16 c1.52 0 3.46 0.66 3.24 1.34 l-0.24 0.76 c-0.62 1.94 -1.12 -0.74 -3.86 -0.74 c-1.42 0 -2.16 0.72 -2.16 1.78 c0 0.9 0.54 1.4 1.88 2.22 l2.1 1.3 c2.12 1.32 2.98 2.22 2.98 3.66 c0 2.5 -2.46 4.32 -5.14 4.32 z"></path></g>
			</g>
		</svg>
	